<svg width="32" height="32" viewBox="0 0 32 32" fill="none" xmlns="http://www.w3.org/2000/svg">
<path d="M16.2134 14.4934C16.0801 14.4801 15.9201 14.4801 15.7734 14.4934C12.6001 14.3867 10.0801 11.7867 10.0801 8.58675C10.0801 5.32008 12.7201 2.66675 16.0001 2.66675C19.2667 2.66675 21.9201 5.32008 21.9201 8.58675C21.9067 11.7867 19.3867 14.3867 16.2134 14.4934Z" stroke="#B8B8B8" stroke-width="2" stroke-linecap="round" stroke-linejoin="round"/>
<path d="M9.54659 19.4133C6.31992 21.5733 6.31992 25.0933 9.54659 27.2399C13.2133 29.6933 19.2266 29.6933 22.8933 27.2399C26.1199 25.0799 26.1199 21.5599 22.8933 19.4133C19.2399 16.9733 13.2266 16.9733 9.54659 19.4133Z" stroke="#B8B8B8" stroke-width="2" stroke-linecap="round" stroke-linejoin="round"/>
</svg>
