<svg width="41" height="55" viewBox="0 0 41 55" fill="none" xmlns="http://www.w3.org/2000/svg">
<path fill-rule="evenodd" clip-rule="evenodd" d="M25.1417 13.1958C23.6922 8.58763 17.3079 8.58763 15.8585 13.1958C15.6518 13.8528 15.0824 14.2458 14.496 14.2458C9.66273 14.2458 7.91402 20.4647 11.6089 23.2378C12.1181 23.6199 12.357 24.3277 12.1478 24.993C11.4376 27.2507 12.3484 29.3627 13.9023 30.5289C15.4642 31.7011 17.7585 31.9683 19.6764 30.5289C20.1714 30.1574 20.8287 30.1574 21.3237 30.5289C23.2416 31.9683 25.536 31.7011 27.0979 30.5289C28.6517 29.3627 29.5626 27.2507 28.8524 24.993C28.6431 24.3277 28.8821 23.6199 29.3912 23.2378C33.0861 20.4647 31.3374 14.2458 26.5042 14.2458C25.9177 14.2458 25.3483 13.8528 25.1417 13.1958ZM14.496 17.6833C16.6445 17.6833 18.4991 16.2571 19.1376 14.2272C19.578 12.8272 21.4222 12.8272 21.8626 14.2272C22.5011 16.2571 24.3556 17.6833 26.5042 17.6833C27.1689 17.6833 27.665 18.0921 27.8666 18.7333C28.0696 19.3784 27.9038 20.0562 27.3278 20.4885C25.6243 21.767 24.9374 24.0028 25.5733 26.0244C25.8081 26.7708 25.5271 27.4098 25.0345 27.7796C24.5499 28.1433 23.9431 28.1968 23.3871 27.7796C21.6695 26.4905 19.3306 26.4905 17.613 27.7796C17.0571 28.1968 16.4503 28.1433 15.9657 27.7796C15.4731 27.4098 15.1921 26.7708 15.4269 26.0244C16.0628 24.0028 15.3758 21.767 13.6723 20.4885C13.0963 20.0562 12.9306 19.3784 13.1335 18.7333C13.3352 18.0921 13.8313 17.6833 14.496 17.6833Z" fill="#B8B8B8"/>
<path fill-rule="evenodd" clip-rule="evenodd" d="M20.5001 0.572998C9.42562 0.572998 0.447998 9.55062 0.447998 20.6251C0.447998 25.4713 2.16919 29.9192 5.03143 33.3855L5.03132 46.8392C5.0312 48.5133 5.0311 49.9635 5.19301 51.051C5.35631 52.1479 5.77478 53.5248 7.19185 54.1586C8.58731 54.7827 9.89747 54.2097 10.8454 53.6255C11.7938 53.0411 12.9216 52.1009 14.2328 51.0079L16.4872 49.1288C17.7409 48.0839 18.5614 47.404 19.2422 46.9667C19.8818 46.556 20.2251 46.4766 20.5001 46.4766C20.7751 46.4766 21.1184 46.556 21.7579 46.9667C22.4387 47.404 23.2593 48.0839 24.513 49.1288L26.7673 51.0079C28.0786 52.1009 29.2064 53.0411 30.1548 53.6255C31.1027 54.2097 32.4129 54.7827 33.8083 54.1586C35.2254 53.5248 35.6439 52.1479 35.8072 51.051C35.9691 49.9635 35.969 48.5133 35.9688 46.8392L35.9687 33.3855C38.831 29.9192 40.5522 25.4713 40.5522 20.6251C40.5522 9.55062 31.5745 0.572998 20.5001 0.572998ZM3.8855 20.6251C3.8855 11.4491 11.3241 4.0105 20.5001 4.0105C29.6761 4.0105 37.1147 11.4491 37.1147 20.6251C37.1147 24.8399 35.5475 28.6845 32.9615 31.6144C29.9146 35.0665 25.4622 37.2397 20.5001 37.2397C15.5384 37.2397 11.0864 35.0669 8.03953 31.6154C5.45304 28.6853 3.8855 24.8404 3.8855 20.6251ZM8.59303 50.5448C8.4735 49.7419 8.46883 48.5535 8.46883 46.7012V36.668C11.8195 39.1844 15.9861 40.6772 20.5001 40.6772C25.0141 40.6772 29.1807 39.1844 32.5313 36.668V46.7012C32.5313 48.5535 32.5267 49.7419 32.4071 50.5448C32.3839 50.7011 32.3595 50.8196 32.3371 50.9082C32.2442 50.8647 32.1198 50.7987 31.9582 50.6991C31.246 50.2602 30.3089 49.4847 28.8653 48.2815L26.6342 46.4219C25.4823 45.4617 24.4978 44.641 23.6155 44.0744C22.6717 43.4682 21.6784 43.0391 20.5001 43.0391C19.3218 43.0391 18.3285 43.4682 17.3846 44.0744C16.5024 44.641 15.5179 45.4617 14.3659 46.4219L12.1349 48.2815C10.6913 49.4847 9.7542 50.2602 9.04199 50.6991C8.88035 50.7987 8.756 50.8647 8.66302 50.9082C8.64067 50.8196 8.6163 50.7011 8.59303 50.5448ZM32.2521 51.1438C32.2517 51.1428 32.2559 51.1342 32.2661 51.1214C32.2576 51.1385 32.2525 51.1449 32.2521 51.1438ZM32.5463 50.9868C32.5605 50.9869 32.5685 50.9886 32.5689 50.9894C32.5694 50.9902 32.5623 50.9902 32.5463 50.9868ZM8.43122 50.9894C8.43166 50.9886 8.43962 50.9869 8.45382 50.9868C8.43788 50.9902 8.43078 50.9902 8.43122 50.9894ZM8.74805 51.1438C8.74847 51.1428 8.74423 51.1342 8.73403 51.1214C8.7351 51.1235 8.7361 51.1255 8.73706 51.1273C8.74373 51.14 8.74768 51.1448 8.74805 51.1438Z" fill="#B8B8B8"/>
</svg>
